<svg width="100" height="100" viewBox="0 0 3608 2153" fill="none" xmlns="http://www.w3.org/2000/svg">
<rect width="3607.38" height="2152.02"/>
<path d="M1233 1534.02V804.019H1325V1238.02H1465L1599 1024.02H1701L1556 1252.02C1604 1266.02 1641.33 1292.35 1668 1331.02C1695.33 1369.02 1709 1413.35 1709 1464.02V1534.02H1616V1464.02C1616 1436.02 1609.67 1411.02 1597 1389.02C1585 1367.02 1568 1349.69 1546 1337.02C1524 1323.69 1498.67 1317.02 1470 1317.02H1325V1534.02H1233Z" fill="#5befda"/>
<path d="M1895.42 1534.02V1024.02H1988.42V1534.02H1895.42ZM1942.42 943.019C1925.76 943.019 1911.09 937.019 1898.42 925.019C1886.42 912.352 1880.42 897.686 1880.42 881.019C1880.42 864.352 1886.42 850.019 1898.42 838.019C1911.09 825.352 1925.76 819.019 1942.42 819.019C1959.09 819.019 1973.42 825.352 1985.42 838.019C1998.09 850.019 2004.42 864.352 2004.42 881.019C2004.42 897.686 1998.09 912.352 1985.42 925.019C1973.42 937.019 1959.09 943.019 1942.42 943.019Z" fill="#5befda"/>
<path d="M2423.7 1546.02C2385.04 1546.02 2349.7 1540.02 2317.7 1528.02C2285.7 1515.35 2258.04 1497.02 2234.7 1473.02C2211.37 1449.02 2193.04 1420.35 2179.7 1387.02C2167.04 1353.02 2160.7 1315.02 2160.7 1273.02C2160.7 1219.69 2171.37 1173.69 2192.7 1135.02C2214.7 1095.69 2244.37 1065.35 2281.7 1044.02C2319.7 1022.69 2362.04 1012.02 2408.7 1012.02C2434.7 1012.02 2459.37 1016.35 2482.7 1025.02C2506.7 1033.69 2528.04 1045.69 2546.7 1061.02C2565.37 1076.35 2580.04 1094.35 2590.7 1115.02H2592.7V804.019H2684.7V1276.02C2684.7 1332.69 2673.04 1381.35 2649.7 1422.02C2627.04 1462.02 2596.04 1492.69 2556.7 1514.02C2518.04 1535.35 2473.7 1546.02 2423.7 1546.02ZM2423.7 1467.02C2455.04 1467.02 2483.37 1459.35 2508.7 1444.02C2534.04 1428.69 2554.04 1407.02 2568.7 1379.02C2584.04 1351.02 2591.7 1318.02 2591.7 1280.02C2591.7 1241.35 2584.04 1208.02 2568.7 1180.02C2554.04 1151.35 2534.04 1129.35 2508.7 1114.02C2483.37 1098.69 2454.7 1091.02 2422.7 1091.02C2391.37 1091.02 2362.7 1099.02 2336.7 1115.02C2311.37 1131.02 2291.04 1153.02 2275.7 1181.02C2261.04 1209.02 2253.7 1241.69 2253.7 1279.02C2253.7 1317.69 2261.37 1351.02 2276.7 1379.02C2292.04 1407.02 2312.37 1428.69 2337.7 1444.02C2363.7 1459.35 2392.37 1467.02 2423.7 1467.02Z" fill="#5befda"/>
<path d="M3094.38 1546.02C3045.04 1546.02 3002.38 1534.35 2966.38 1511.02C2930.38 1487.02 2902.71 1454.69 2883.38 1414.02C2864.04 1373.35 2854.38 1328.35 2854.38 1279.02C2854.38 1229.02 2865.04 1184.02 2886.38 1144.02C2907.71 1103.35 2938.37 1071.35 2978.38 1048.02C3018.38 1024.02 3066.37 1012.02 3122.38 1012.02C3176.38 1012.02 3222.71 1023.69 3261.38 1047.02C3300.04 1070.35 3329.71 1102.02 3350.38 1142.02C3371.71 1182.02 3382.38 1226.69 3382.38 1276.02V1534.02H3289.38V1430.02H3287.38C3277.38 1449.35 3263.71 1468.02 3246.38 1486.02C3229.71 1503.35 3208.71 1517.69 3183.38 1529.02C3158.04 1540.35 3128.38 1546.02 3094.38 1546.02ZM3118.38 1467.02C3151.71 1467.02 3181.04 1459.02 3206.38 1443.02C3232.38 1426.35 3252.38 1403.69 3266.38 1375.02C3281.04 1345.69 3288.38 1313.02 3288.38 1277.02C3288.38 1241.69 3281.37 1210.02 3267.38 1182.02C3254.04 1154.02 3234.71 1132.02 3209.38 1116.02C3184.04 1099.35 3154.38 1091.02 3120.38 1091.02C3084.37 1091.02 3053.37 1099.35 3027.38 1116.02C3002.04 1132.69 2982.37 1155.35 2968.38 1184.02C2955.04 1212.02 2948.38 1244.02 2948.38 1280.02C2948.38 1314.69 2955.04 1346.35 2968.38 1375.02C2981.71 1403.02 3001.04 1425.35 3026.38 1442.02C3051.71 1458.69 3082.38 1467.02 3118.38 1467.02Z" fill="#5befda"/>
<path d="M902 1184.52C902 1371.47 750.448 1523.02 563.5 1523.02C376.552 1523.02 225 1371.47 225 1184.52C225 997.571 376.552 846.019 563.5 846.019C750.448 846.019 902 997.571 902 1184.52Z" fill="hera blue"/>
<path d="M902 1184.52C902 1371.47 750.448 1523.02 563.5 1523.02C376.552 1523.02 225 1371.47 225 1184.52C225 997.571 376.552 846.019 563.5 846.019C750.448 846.019 902 997.571 902 1184.52Z" fill="hera blue"/>
<path d="M874 534.019C874 574.991 865.93 615.563 850.25 653.416C834.571 691.27 811.589 725.664 782.617 754.636C753.645 783.608 719.251 806.59 681.397 822.269C643.544 837.949 602.972 846.019 562 846.019V534.019H874Z" fill="hera blue"/>
<path d="M562.36 534.333C562.356 513.806 566.396 493.48 574.248 474.514C582.101 455.549 593.611 438.316 608.124 423.799C622.636 409.282 639.865 397.766 658.828 389.908C677.791 382.05 698.116 378.003 718.642 378C739.169 377.997 759.495 382.037 778.461 389.889C797.426 397.741 814.659 409.252 829.176 423.764C843.693 438.276 855.209 455.505 863.067 474.468C870.926 493.431 874.972 513.756 874.975 534.283L562.36 534.333Z" fill="hera blue"/>
<path d="M563 1638.52C563 1713.35 502.335 1774.02 427.5 1774.02C352.665 1774.02 292 1713.35 292 1638.52C292 1563.68 352.665 1503.02 427.5 1503.02C502.335 1503.02 563 1563.68 563 1638.52Z" fill="hera blue"/>
<path d="M902 1184.52C902 1371.47 750.448 1523.02 563.5 1523.02C376.552 1523.02 225 1371.47 225 1184.52C225 997.571 376.552 846.019 563.5 846.019C750.448 846.019 902 997.571 902 1184.52Z" fill="hera blue"/>
<path d="M902 1184.52C902 1371.47 750.448 1523.02 563.5 1523.02C376.552 1523.02 225 1371.47 225 1184.52C225 997.571 376.552 846.019 563.5 846.019C750.448 846.019 902 997.571 902 1184.52Z" fill="hera blue"/>
<path d="M874 534.019C874 574.991 865.93 615.563 850.25 653.416C834.571 691.27 811.589 725.664 782.617 754.636C753.645 783.608 719.251 806.59 681.397 822.269C643.544 837.949 602.972 846.019 562 846.019V534.019H874Z" fill="hera blue"/>
<path d="M902 1184.52C902 1371.47 750.448 1523.02 563.5 1523.02C376.552 1523.02 225 1371.47 225 1184.52C225 997.571 376.552 846.019 563.5 846.019C750.448 846.019 902 997.571 902 1184.52Z" fill="hera blue"/>
<path d="M902 1184.52C902 1371.47 750.448 1523.02 563.5 1523.02C376.552 1523.02 225 1371.47 225 1184.52C225 997.571 376.552 846.019 563.5 846.019C750.448 846.019 902 997.571 902 1184.52Z" fill="hera blue"/>
<path d="M874 534.019C874 574.991 865.93 615.563 850.25 653.416C834.571 691.27 811.589 725.664 782.617 754.636C753.645 783.608 719.251 806.59 681.397 822.269C643.544 837.949 602.972 846.019 562 846.019V534.019H874Z" fill="#877ae9"/>
<path d="M562.36 534.333C562.356 513.806 566.396 493.48 574.248 474.514C582.101 455.549 593.611 438.316 608.124 423.799C622.636 409.282 639.865 397.766 658.828 389.908C677.791 382.05 698.116 378.003 718.642 378C739.169 377.997 759.495 382.037 778.461 389.889C797.426 397.741 814.659 409.252 829.176 423.764C843.693 438.276 855.209 455.505 863.067 474.468C870.926 493.431 874.972 513.756 874.975 534.283L562.36 534.333Z" fill="#877ae9"/>
<path d="M902 1184.52C902 1371.47 750.448 1523.02 563.5 1523.02C376.552 1523.02 225 1371.47 225 1184.52C225 997.571 376.552 846.019 563.5 846.019C750.448 846.019 902 997.571 902 1184.52Z" fill="hera blue"/>
<path d="M902 1184.52C902 1371.47 750.448 1523.02 563.5 1523.02C376.552 1523.02 225 1371.47 225 1184.52C225 997.571 376.552 846.019 563.5 846.019C750.448 846.019 902 997.571 902 1184.52Z" fill="#877ae9"/>
<path d="M874 534.019C874 574.991 865.93 615.563 850.25 653.416C834.571 691.27 811.589 725.664 782.617 754.636C753.645 783.608 719.251 806.59 681.397 822.269C643.544 837.949 602.972 846.019 562 846.019V534.019H874Z" fill="hera blue"/>
<path d="M563 1638.52C563 1713.35 502.335 1774.02 427.5 1774.02C352.665 1774.02 292 1713.35 292 1638.52C292 1563.68 352.665 1503.02 427.5 1503.02C502.335 1503.02 563 1563.68 563 1638.52Z" fill="#877ae9"/>
</svg>
